<?xml version="1.0" standalone="no"?><!DOCTYPE svg PUBLIC "-//W3C//DTD SVG 1.1//EN" "http://www.w3.org/Graphics/SVG/1.1/DTD/svg11.dtd"><svg t="1694945360120" class="icon" viewBox="0 0 1024 1024" version="1.1" xmlns="http://www.w3.org/2000/svg" p-id="1688" xmlns:xlink="http://www.w3.org/1999/xlink" width="200" height="200"><path d="M554.016 318.016l-6.016 4q4-2.016 6.016-4z m-29.024-17.024q4-4 8.992-6.016l-8.992 4v2.016z m15.008-8.992l-6.016 4q2.016-3.008 6.016-4z m318.016 112q-30.016 0.992-50.016 18.016-4.992-32-28.512-53.504t-57.504-22.496q-31.008 0.992-54.016 20-0.992-31.008-20.512-54.016t-49.504-28.992q-8.992-2.016-18.016-2.016-23.008 0.992-40.992 11.008l-16 10.016V155.008q-0.992-36-24.512-60t-60-24-60.512 24-24.992 60v410.016l-82.016-39.008q-18.016-12-51.488-13.504t-63.488 29.504q-27.008 34.016-20.992 65.504t20.992 47.488q11.008 14.016 89.504 99.488t138.496 137.504q44 40 99.008 61.504t115.008 21.504h16.992q131.008-3.008 220.512-88.512t99.488-216.512l2.016-15.008v-170.016q-0.992-35.008-24-57.504t-55.008-23.488z m48 231.008v18.016q-3.008 123.008-84.992 204.992t-204.992 84.992h-16.992q-58.016 0-110.496-21.504t-94.496-63.488q-60-56-132.992-136t-80.992-88q-4.992-4.992-12.512-25.504t12.512-47.488q24.992-24 49.504-18.496t28.512 9.504l95.008 44.992v72.992q0.992 14.016 15.488 14.016t15.488-14.016V153.024q0-23.008 15.488-38.496t39.008-15.488 38.496 15.488 16 38.496v416.992q0.992 14.016 15.488 14.016t14.496-14.016V368q0.992-14.016 7.008-26.016t16-20l6.016-4q12-8 26.016-8 24 0.992 40 16.992t16 39.008v200.992q0.992 14.016 15.488 14.016t15.488-14.016v-136.992q0-23.008 15.488-38.496t39.008-15.488 39.008 15.488 15.488 38.496v138.016q0.992 15.008 15.488 15.008t14.496-15.008v-86.016q0.992-20.992 15.488-35.488t35.488-14.496 35.008 14.496 15.008 35.488v152.992h0.992zM182.016 200.992V93.984h24q3.008-0.992 0.992-4L168 48.992h-2.016L126.976 91.008q-2.016 3.008 0.992 3.008h24.992v107.008q-28 4.992-46.496 26.496t-19.488 52.512q0.992 32.992 23.488 56t56 23.008 56-23.008 22.496-56q0.992-31.008-16.992-52.512t-46.016-26.496z m-14.016 130.016q-22.016 0-36.512-14.496t-14.496-36.992 14.496-36.992 36.512-14.496 36.512 14.496 14.016 36.992-15.008 36.992-35.488 14.496z" p-id="1689"></path></svg>